<svg xmlns="http://www.w3.org/2000/svg" viewBox="0 0 152.47 37.867"><path style="stroke-linejoin:round;stroke:#008484;stroke-linecap:round;stroke-width:.058065;fill:#bae6fd" d="M271.45 410.63c0 10.357-16.019 17.3-16.188 25.781 0 4.653 3.658 8.424 8.168 8.424 3.392 0 6.3-2.133 7.534-5.17-1.994 8.794-9.744 8.707-9.744 8.707h20.417s-7.712-.049-9.73-8.695c1.237 3.03 4.143 5.158 7.53 5.158 4.512 0 8.167-3.771 8.167-8.424.01-8.818-16.154-15.425-16.154-25.781z" transform="translate(-255.2 -410.57)"/><path style="stroke-linejoin:round;stroke:#008484;stroke-linecap:round;stroke-width:.060988;fill:#a31919" d="M375.26 419.93c0-5.134 3.657-9.294 8.167-9.294 3.952 0 7.247 3.194 8.003 7.438.756-4.244 4.052-7.439 8.003-7.439 4.51 0 8.166 4.161 8.166 9.295.01 9.73-16.153 17.018-16.153 28.444 0-11.427-16.017-19.087-16.186-28.444z" transform="translate(-255.2 -410.57)"/><path style="stroke-linejoin:round;stroke:#008484;stroke-linecap:round;stroke-width:.058849;fill:#bae6fd" d="M351.32 410.63c-4.51 0-8.168 3.876-8.168 8.655 0 3.553 2.022 6.605 4.911 7.938 1.207 1.271 2.269 3.066 2.871 5.6-1.252-3.077-4.14-5.23-7.503-5.23-4.51 0-8.168 3.875-8.168 8.654s3.657 8.654 8.168 8.654c3.373 0 6.268-2.166 7.514-5.257-2.07 8.816-9.696 8.727-9.696 8.727h20.416s-7.399-.048-9.598-8.396c1.314 2.913 4.12 4.926 7.37 4.926 4.511 0 8.167-3.874 8.167-8.654s-3.656-8.655-8.166-8.655c-3.238 0-6.034 1.996-7.355 4.89.703-2.632 1.923-4.435 3.264-5.668v-.002c2.47-1.488 4.137-4.3 4.137-7.527 0-4.78-3.656-8.655-8.166-8.655z" transform="translate(-255.2 -410.57)"/><path style="stroke-linejoin:round;stroke:#008484;stroke-linecap:round;stroke-width:.061854;fill:#a31919" d="M311.43 448.37s-4.61-7.17-7.317-10.33c-2.707-3.159-8.852-8.54-8.852-8.54s6.145-5.38 8.852-8.538 7.317-10.33 7.317-10.33 4.61 7.17 7.317 10.33c2.707 3.159 8.852 8.539 8.852 8.539s-6.145 5.38-8.852 8.539c-2.707 3.159-7.317 10.33-7.317 10.33z" transform="translate(-255.2 -410.57)"/></svg>