<svg xmlns="http://www.w3.org/2000/svg" viewBox="0 0 599.73 878.74" version="1.0"><path transform="translate(-36494.482 -64733.234) scale(104.66)" d="M354.23 625.16h.21c0 .61-.1 1.06-.31 1.34-.19.28-.44.42-.75.42-.24 0-.48-.09-.7-.27-.23-.19-.43-.69-.61-1.49l-.51-2.28-1.74 3.96h-1.11l2.51-5.4c-.14-.7-.3-1.22-.48-1.55-.19-.34-.42-.51-.7-.51-.22 0-.42.09-.59.26-.16.17-.25.43-.27.79h-.21c.01-.58.12-1.04.34-1.38.22-.35.49-.52.82-.52.21 0 .41.09.6.26s.36.47.49.89c.14.42.36 1.29.65 2.61l.42 1.86c.17.77.34 1.28.53 1.54.18.26.41.39.66.39.44 0 .69-.31.75-.92"/></svg>